<svg width="80" height="56" viewBox="0 0 80 56" fill="none" xmlns="http://www.w3.org/2000/svg">
<path d="M44.3714 16.4271C43.4294 18.6878 42.1875 19.8161 40.044 20.65C42.375 21.6368 43.3862 22.8646 44.3714 25.0546C45.3133 22.7939 46.5552 21.4853 48.6987 20.65C46.3677 19.6631 45.3566 18.6171 44.3714 16.4271Z" fill="white"/>
<path d="M44.3714 16.4126C43.4294 18.6806 42.1875 19.8132 40.044 20.65C42.375 21.6411 43.3862 22.8718 44.3714 25.0691C45.3133 22.8011 46.5552 21.4882 48.6987 20.65C46.3677 19.6602 45.3566 18.6099 44.3714 16.4126Z" fill="white"/>
<path d="M44.7103 27.6934C44.556 31.5412 41.3898 34.6128 37.5053 34.6128C33.5241 34.6128 30.2959 31.3854 30.293 27.4034C30.2944 25.5683 30.9811 23.8947 32.1105 22.6222C28.9833 24.0231 26.4734 26.633 25.2444 29.9282C24.9775 30.6438 25.1838 31.5196 25.4406 32.1991C27.3504 36.9948 32.0398 40.3924 37.5067 40.3924C44.5704 40.3924 50.333 34.721 50.4845 27.6934H44.7103Z" fill="white"/>
<path d="M37.4807 20.194C37.4894 20.194 37.4966 20.194 37.5053 20.194C37.5269 20.194 37.5485 20.1955 37.5716 20.1955C37.6034 20.1955 37.6365 20.1984 37.6683 20.1984V14.4245C37.6135 14.4245 37.5601 14.4231 37.5053 14.4231C35.6185 14.4231 33.8256 14.8285 32.2057 15.5556C31.6042 15.7706 30.9984 16.1226 30.1617 16.6983V7.35798C30.1617 7.35798 30.2382 2.39206 24.5376 0C24.5376 0 24.5362 8.43282 24.5362 8.43715C24.5362 13.2819 24.5362 26.8148 24.5362 26.8148C24.5362 26.822 24.5362 26.8307 24.5362 26.8379C24.5275 27.0211 24.5232 27.2058 24.5232 27.3904C24.5232 27.3933 24.5232 27.3977 24.5232 27.4005V27.4049V27.4092C24.5232 27.6949 24.5333 27.9776 24.552 28.2575C26.9076 23.3969 31.9071 20.1609 37.4807 20.194Z" fill="white"/>
<path d="M38.3534 49.6837V52.4783C38.3534 53.1636 38.4934 53.6757 38.7746 54.0191C39.0559 54.361 39.4771 54.5573 40.0397 54.6063V56C39.0617 55.961 38.2828 55.6509 37.7043 55.068C37.1259 54.4866 36.8316 53.6281 36.8215 52.4941V49.6851H35.6661V48.4198H36.8215V44.9226H38.352V48.4198H40.0382V49.6851L38.3534 49.6837Z" fill="white"/>
<path d="M52.0351 44.9659V55.9481L50.5018 55.9495V44.9659H52.0351Z" fill="white"/>
<path d="M60.7822 52.7308H55.1176C55.1624 53.3107 55.3816 53.7767 55.7768 54.1288C56.1706 54.4808 56.6553 54.6568 57.2294 54.6568C58.0545 54.6568 58.6372 54.3192 58.9791 53.6411H60.6336C60.4086 54.3091 60.0032 54.8574 59.4162 55.283C58.8291 55.71 58.0992 55.9221 57.2294 55.9221C56.5211 55.9221 55.8865 55.7663 55.3254 55.4546C54.7642 55.143 54.3243 54.703 54.007 54.136C53.6882 53.569 53.5295 52.9111 53.5295 52.1637C53.5295 51.4164 53.6838 50.7585 53.994 50.1915C54.3027 49.6245 54.7383 49.1874 55.2994 48.8786C55.8605 48.5713 56.5038 48.417 57.2308 48.417C57.9304 48.417 58.5536 48.567 59.1017 48.8656C59.6484 49.1643 60.0754 49.5841 60.3797 50.1252C60.6841 50.6662 60.837 51.288 60.837 51.9921C60.8355 52.2647 60.8168 52.5115 60.7822 52.7308ZM59.2344 51.5174C59.2258 50.9634 59.0238 50.519 58.6286 50.1858C58.2333 49.8525 57.7443 49.6851 57.1616 49.6851C56.6322 49.6851 56.1793 49.8496 55.8028 50.18C55.4263 50.5104 55.2013 50.9562 55.1306 51.5188H59.2344V51.5174Z" fill="white"/>
<path d="M67.6107 48.7733C68.0723 49.0114 68.4344 49.3619 68.694 49.828C68.9537 50.294 69.0849 50.8566 69.0849 51.516V55.9365H67.5646V51.741C67.5646 51.0904 67.3987 50.5912 67.0669 50.2435C66.7352 49.8958 66.2822 49.7226 65.7081 49.7226C65.134 49.7226 64.6782 49.8958 64.3421 50.2435C64.006 50.5912 63.8373 51.0904 63.8373 51.741V55.9495H62.3011L62.3025 48.417H63.8358V49.3663C64.0868 49.0676 64.4071 48.8339 64.798 48.6665C65.1874 48.4992 65.6028 48.4155 66.0428 48.4155C66.627 48.4184 67.1492 48.5367 67.6107 48.7733Z" fill="white"/>
<path d="M48.703 52.1637V52.1565C48.7016 51.4207 48.5357 50.7686 48.2054 50.1987C47.8736 49.6274 47.4207 49.1874 46.8466 48.8801C46.2725 48.5728 45.6306 48.4184 44.9224 48.4184C44.2141 48.4184 43.5722 48.5728 42.9981 48.8801C42.424 49.1874 41.9711 49.6274 41.6393 50.1987C41.3076 50.7701 41.1417 51.4251 41.1417 52.1637C41.1417 52.9111 41.3033 53.569 41.6264 54.136C41.9495 54.703 42.3937 55.143 42.9592 55.4546C43.5246 55.7663 44.1564 55.9221 44.856 55.9221C45.5643 55.9221 46.2119 55.7663 46.8004 55.4546C46.9274 55.3868 47.0485 55.3118 47.1639 55.2325V55.9192H48.7045V52.1637H48.703ZM46.8048 53.5084C46.5898 53.8777 46.3086 54.1547 45.9638 54.3394C45.6176 54.5241 45.2484 54.6164 44.8531 54.6164C44.2343 54.6164 43.7208 54.4029 43.3126 53.9773C42.9044 53.5502 42.701 52.9472 42.701 52.1637C42.701 51.6357 42.7991 51.1899 42.9967 50.8249C43.1943 50.4599 43.4612 50.1858 43.7973 50.0011C44.1333 49.8164 44.4983 49.7241 44.8935 49.7241C45.2888 49.7241 45.6566 49.8164 45.997 50.0011C46.3374 50.1858 46.6115 50.4613 46.8178 50.8249C47.024 51.1899 47.1279 51.6357 47.1279 52.1637C47.1279 52.6904 47.0211 53.139 46.8048 53.5084Z" fill="white"/>
<path d="M72.8281 49.6346V52.4292C72.8281 53.1145 72.968 53.6267 73.2493 53.9701C73.5306 54.312 73.9518 54.5082 74.5143 54.5573V55.9509C73.5363 55.912 72.7574 55.6018 72.179 55.0189C71.6006 54.4375 71.3063 53.5791 71.2962 52.4451V49.6346H70.1408V48.3693H71.2962V44.9226H72.8267V48.3693H74.5129V49.6346H72.8281Z" fill="white"/>
<path d="M1.27 55.3537V44.861H2.47887V48.7343H2.58132C2.67011 48.5977 2.79304 48.4235 2.95013 48.2117C3.11063 47.9965 3.33943 47.8053 3.63653 47.6379C3.93704 47.4671 4.34341 47.3817 4.85565 47.3817C5.51814 47.3817 6.10209 47.5474 6.60749 47.8787C7.1129 48.21 7.50732 48.6797 7.79075 49.2876C8.07419 49.8956 8.21591 50.6129 8.21591 51.4394C8.21591 52.2728 8.07419 52.9952 7.79075 53.6066C7.50732 54.2146 7.1146 54.686 6.61261 55.0207C6.11062 55.352 5.5318 55.5176 4.87614 55.5176C4.37073 55.5176 3.96606 55.434 3.66214 55.2666C3.35821 55.0958 3.12429 54.9028 2.96037 54.6877C2.79646 54.4691 2.67011 54.288 2.58132 54.1446H2.43789V55.3537H1.27ZM2.45838 51.4189C2.45838 52.0133 2.54546 52.5376 2.71962 52.9918C2.89378 53.4427 3.14819 53.7962 3.48285 54.0524C3.81752 54.3051 4.2273 54.4315 4.71222 54.4315C5.21763 54.4315 5.63937 54.2983 5.97744 54.0319C6.31893 53.762 6.57505 53.4 6.74579 52.9457C6.91995 52.488 7.00703 51.9791 7.00703 51.4189C7.00703 50.8656 6.92166 50.3669 6.75092 49.9229C6.58359 49.4755 6.32918 49.122 5.98769 48.8624C5.64961 48.5994 5.22445 48.4679 4.71222 48.4679C4.22047 48.4679 3.80727 48.5926 3.47261 48.8419C3.13795 49.0878 2.88525 49.4328 2.7145 49.8768C2.54376 50.3174 2.45838 50.8315 2.45838 51.4189Z" fill="white"/>
<path d="M13.2614 55.5176C12.5511 55.5176 11.9279 55.3486 11.3918 55.0104C10.859 54.6723 10.4424 54.1992 10.1419 53.5913C9.84482 52.9833 9.69627 52.2728 9.69627 51.4599C9.69627 50.6402 9.84482 49.9246 10.1419 49.3132C10.4424 48.7019 10.859 48.2271 11.3918 47.8889C11.9279 47.5508 12.5511 47.3817 13.2614 47.3817C13.9717 47.3817 14.5932 47.5508 15.126 47.8889C15.6621 48.2271 16.0787 48.7019 16.3758 49.3132C16.6763 49.9246 16.8266 50.6402 16.8266 51.4599C16.8266 52.2728 16.6763 52.9833 16.3758 53.5913C16.0787 54.1992 15.6621 54.6723 15.126 55.0104C14.5932 55.3486 13.9717 55.5176 13.2614 55.5176ZM13.2614 54.4315C13.801 54.4315 14.2449 54.2932 14.5932 54.0165C14.9416 53.7398 15.1994 53.3761 15.3667 52.9252C15.534 52.4744 15.6177 51.9859 15.6177 51.4599C15.6177 50.9339 15.534 50.4438 15.3667 49.9895C15.1994 49.5353 14.9416 49.1681 14.5932 48.888C14.2449 48.6079 13.801 48.4679 13.2614 48.4679C12.7219 48.4679 12.2779 48.6079 11.9296 48.888C11.5813 49.1681 11.3235 49.5353 11.1561 49.9895C10.9888 50.4438 10.9051 50.9339 10.9051 51.4599C10.9051 51.9859 10.9888 52.4744 11.1561 52.9252C11.3235 53.3761 11.5813 53.7398 11.9296 54.0165C12.2779 54.2932 12.7219 54.4315 13.2614 54.4315Z" fill="white"/>
<path d="M21.8683 55.5176C21.158 55.5176 20.5347 55.3486 19.9986 55.0104C19.4659 54.6723 19.0493 54.1992 18.7488 53.5913C18.4517 52.9833 18.3031 52.2728 18.3031 51.4599C18.3031 50.6402 18.4517 49.9246 18.7488 49.3132C19.0493 48.7019 19.4659 48.2271 19.9986 47.8889C20.5347 47.5508 21.158 47.3817 21.8683 47.3817C22.5786 47.3817 23.2001 47.5508 23.7328 47.8889C24.2689 48.2271 24.6856 48.7019 24.9827 49.3132C25.2832 49.9246 25.4334 50.6402 25.4334 51.4599C25.4334 52.2728 25.2832 52.9833 24.9827 53.5913C24.6856 54.1992 24.2689 54.6723 23.7328 55.0104C23.2001 55.3486 22.5786 55.5176 21.8683 55.5176ZM21.8683 54.4315C22.4078 54.4315 22.8518 54.2932 23.2001 54.0165C23.5484 53.7398 23.8062 53.3761 23.9736 52.9252C24.1409 52.4744 24.2245 51.9859 24.2245 51.4599C24.2245 50.9339 24.1409 50.4438 23.9736 49.9895C23.8062 49.5353 23.5484 49.1681 23.2001 48.888C22.8518 48.6079 22.4078 48.4679 21.8683 48.4679C21.3287 48.4679 20.8848 48.6079 20.5365 48.888C20.1881 49.1681 19.9303 49.5353 19.763 49.9895C19.5956 50.4438 19.512 50.9339 19.512 51.4599C19.512 51.9859 19.5956 52.4744 19.763 52.9252C19.9303 53.3761 20.1881 53.7398 20.5365 54.0165C20.8848 54.2932 21.3287 54.4315 21.8683 54.4315Z" fill="white"/>
<path d="M28.4057 52.4846L28.3852 50.9886H28.6311L32.0733 47.4842H33.569L29.9014 51.1935H29.7989L28.4057 52.4846ZM27.2787 55.3537V44.861H28.4876V55.3537H27.2787ZM32.2782 55.3537L29.2048 51.4599L30.0653 50.6197L33.8149 55.3537H32.2782Z" fill="white"/>
<path d="M74.5465 42.9354H75.5616V43.1367H75.1725V44.1519H74.9311V43.1367H74.5465V42.9354ZM77.1177 44.1519H76.8762L76.8315 43.4363C76.827 43.3424 76.827 43.2261 76.8226 43.0964H76.8092C76.7779 43.2037 76.7376 43.3469 76.7063 43.4587L76.4872 44.134H76.2368L76.0177 43.4408C75.9953 43.3513 75.9596 43.2037 75.9327 43.0964H75.9193C75.9193 43.2082 75.9148 43.3245 75.9104 43.4363L75.8656 44.1519H75.6331L75.7225 42.9354H76.0848L76.2949 43.5302C76.3262 43.6242 76.3441 43.7136 76.3754 43.8388H76.3799C76.4112 43.7315 76.438 43.6242 76.4649 43.5392L76.675 42.9354H77.0238L77.1177 44.1519Z" fill="white"/>
</svg>
