<svg width="34" height="53" viewBox="0 0 34 53" fill="none" xmlns="http://www.w3.org/2000/svg">
<path d="M25.7969 21.3516C24.5725 24.2897 22.9581 25.7559 20.1719 26.8397C23.2019 28.1222 24.5163 29.7178 25.7969 32.5641C27.0213 29.6259 28.6356 27.9253 31.4219 26.8397C28.3938 25.5572 27.0794 24.1978 25.7969 21.3516Z" fill="white"/>
<path d="M25.7969 21.3281C24.5725 24.2756 22.9581 25.7475 20.1719 26.835C23.2019 28.1231 24.5163 29.7225 25.7969 32.5781C27.0213 29.6306 28.6356 27.9244 31.4219 26.835C28.3938 25.5487 27.0794 24.1837 25.7969 21.3281Z" fill="white"/>
<path d="M26.2388 35.9891C26.0382 40.9897 21.9225 44.9816 16.8732 44.9816C11.6982 44.9816 7.50192 40.7872 7.49817 35.6122C7.50004 33.2272 8.39254 31.0522 9.86067 29.3984C5.79567 31.2191 2.53317 34.6109 0.935667 38.8934C0.588792 39.8234 0.856917 40.9616 1.19067 41.8447C3.67317 48.0772 9.76879 52.4928 16.875 52.4928C26.0569 52.4928 33.5475 45.1222 33.7444 35.9891H26.2388Z" fill="white"/>
<path d="M16.8431 26.2463C16.8544 26.2463 16.8637 26.2463 16.875 26.2463C16.9031 26.2463 16.9312 26.2481 16.9613 26.2481C17.0025 26.2481 17.0456 26.2519 17.0869 26.2519V18.7481C17.0156 18.7481 16.9462 18.7463 16.875 18.7463C14.4225 18.7463 12.0919 19.2731 9.98625 20.2181C9.20437 20.4975 8.41687 20.955 7.32937 21.7031V9.5625C7.32937 9.5625 7.42875 3.10875 0.0187497 0C0.0187497 0 0.0168743 10.9594 0.0168743 10.965C0.0168743 17.2612 0.0168743 34.8488 0.0168743 34.8488C0.0168743 34.8581 0.0168743 34.8694 0.0168743 34.8787C0.00562431 35.1169 0 35.3569 0 35.5969C0 35.6006 0 35.6063 0 35.61C0 35.6119 0 35.6138 0 35.6156C0 35.6175 0 35.6194 0 35.6213C0 35.9925 0.0131244 36.36 0.0374994 36.7238C3.09937 30.4088 9.59812 26.2031 16.8431 26.2463Z" fill="white"/>
</svg>
